<svg width="3233" height="340" viewBox="0 0 3233 340" fill="none" xmlns="http://www.w3.org/2000/svg">
<path d="M150.5 -8.34465e-06C180.5 -8.34465e-06 206.833 5.16665 229.5 15.5C252.167 25.8333 271.5 41.1666 287.5 61.5L249 106C235.333 88.6666 220.333 76 204 68C188 59.6667 169.333 55.5 148 55.5C134 55.5 122.333 57.3333 113 61C104 64.6667 97.3333 69.5 93 75.5C89 81.5 87 88.1666 87 95.5C87 104.5 90.5 112.167 97.5 118.5C104.5 124.5 116.5 129.5 133.5 133.5L195 147.5C227.667 154.833 251 165.833 265 180.5C279.333 194.833 286.5 213.5 286.5 236.5C286.5 258.167 280.833 276.833 269.5 292.5C258.167 307.833 242.333 319.667 222 328C201.667 336 178.333 340 152 340C129 340 107.833 337.333 88.5 332C69.5 326.333 52.5 318.667 37.5 309C22.5 299.333 10 288.167 2.68221e-07 275.5L39 229C46.6667 239.667 56.1667 249.167 67.5 257.5C78.8333 265.833 91.6667 272.5 106 277.5C120.667 282.167 136 284.5 152 284.5C165.667 284.5 177.167 283 186.5 280C196.167 276.667 203.333 272.167 208 266.5C213 260.5 215.5 253.333 215.5 245C215.5 236.333 212.5 229 206.5 223C200.833 216.667 190.167 211.833 174.5 208.5L107.5 193.5C88.1667 188.833 71.5 182.833 57.5 175.5C43.8333 167.833 33.3333 158.167 26 146.5C19 134.5 15.5 120.333 15.5 104C15.5 84.3333 20.8333 66.6667 31.5 51C42.1667 35.3333 57.5 23 77.5 14C97.8333 4.66666 122.167 -8.34465e-06 150.5 -8.34465e-06ZM636.277 4.99999L485.277 176.5L479.777 171L397.277 264.5L386.777 200.5L556.277 4.99999H636.277ZM420.777 4.99999V335H351.777V4.99999H420.777ZM504.277 119L640.277 335H561.277L451.277 157.5L504.277 119ZM950.273 4.99999L833.273 211.5V335H764.273V211.5L647.273 4.99999H720.773L773.773 104L798.773 155.5L824.273 104L877.273 4.99999H950.273ZM992.402 335V4.99999H1136.9C1176.9 4.99999 1206.4 12.8333 1225.4 28.5C1244.4 44.1666 1253.9 66.3333 1253.9 95C1253.9 112.667 1248.57 128.333 1237.9 142C1227.24 155.667 1211.57 164.333 1190.9 168V168.5C1213.9 171.833 1231.57 180.5 1243.9 194.5C1256.24 208.5 1262.4 225.167 1262.4 244.5C1262.4 272.833 1252.07 295 1231.4 311C1211.07 327 1181.24 335 1141.9 335H992.402ZM1059.4 283H1135.9C1154.57 283 1168.4 279.167 1177.4 271.5C1186.4 263.833 1190.9 253.167 1190.9 239.5C1190.9 225.5 1186.4 214.833 1177.4 207.5C1168.4 200.167 1154.57 196.5 1135.9 196.5H1059.4V283ZM1059.4 143.5H1127.9C1164.24 143.5 1182.4 129.333 1182.4 101C1182.4 72.6667 1164.24 58.5 1127.9 58.5H1059.4V143.5ZM1328.34 335V4.99999H1575.84V60.5H1397.34V142.5H1537.84V195.5H1397.34V279.5H1582.84V335H1328.34ZM1790.25 4.99999C1827.58 4.99999 1856.91 14 1878.25 32C1899.58 50 1910.25 74.1666 1910.25 104.5C1910.25 136.833 1899.58 161.667 1878.25 179C1856.91 196 1827.75 204.5 1790.75 204.5L1783.75 208.5H1712.75V335H1644.75V4.99999H1790.25ZM1782.25 156C1801.58 156 1815.91 152.167 1825.25 144.5C1834.91 136.5 1839.75 124.333 1839.75 108C1839.75 91.6667 1834.91 79.6667 1825.25 72C1815.91 64 1801.58 60 1782.25 60H1712.75V156H1782.25ZM1822.75 170.5L1929.75 335H1852.25L1763.75 190.5L1822.75 170.5ZM2239.73 4.99999V60.5H2129.23V335H2060.23V60.5H1949.23V4.99999H2239.73ZM2296.11 335V4.99999H2543.61V60.5H2365.11V142.5H2505.61V195.5H2365.11V279.5H2550.61V335H2296.11ZM2890.63 244C2884.29 265.333 2874.29 283.167 2860.63 297.5C2846.96 311.833 2830.79 322.5 2812.13 329.5C2793.46 336.5 2772.96 340 2750.63 340C2717.96 340 2689.63 333.167 2665.63 319.5C2641.96 305.833 2623.63 286.333 2610.63 261C2597.96 235.667 2591.63 205.333 2591.63 170C2591.63 134.667 2597.96 104.333 2610.63 79C2623.63 53.6667 2641.96 34.1667 2665.63 20.5C2689.63 6.83333 2717.63 -8.34465e-06 2749.63 -8.34465e-06C2772.29 -8.34465e-06 2792.79 3.16666 2811.13 9.49999C2829.46 15.5 2844.96 24.8333 2857.63 37.5C2870.63 50.1666 2880.13 66.1667 2886.13 85.5L2823.63 112C2817.96 92 2809.29 77.8333 2797.63 69.5C2785.96 60.8333 2770.96 56.5 2752.63 56.5C2734.63 56.5 2718.79 60.8333 2705.13 69.5C2691.79 78.1667 2681.46 91 2674.13 108C2666.79 124.667 2663.13 145.333 2663.13 170C2663.13 194.333 2666.46 215 2673.13 232C2680.13 249 2690.29 261.833 2703.63 270.5C2716.96 279.167 2733.29 283.5 2752.63 283.5C2770.63 283.5 2786.13 278.667 2799.13 269C2812.46 259.333 2821.79 244.667 2827.13 225L2890.63 244ZM3232.93 4.99999V335H3163.93V4.99999H3232.93ZM3018.43 4.99999V335H2949.43V4.99999H3018.43ZM3199.93 140.5V196H2983.93V140.5H3199.93Z" fill="#040C15"/>
</svg>
